<?xml version="1.0" encoding="UTF-8" standalone="no"?>
<!-- Created with Inkscape (http://www.inkscape.org/) -->

<svg
   width="128"
   height="128"
   viewBox="0 0 33.866666 33.866666"
   version="1.1"
   id="svg1"
   xml:space="preserve"
   inkscape:export-filename="favicon.svg"
   inkscape:export-xdpi="8.0900002"
   inkscape:export-ydpi="8.0900002"
   inkscape:version="1.4.2 (ebf0e940, 2025-05-08)"
   sodipodi:docname="logotipo.svg"
   xmlns:inkscape="http://www.inkscape.org/namespaces/inkscape"
   xmlns:sodipodi="http://sodipodi.sourceforge.net/DTD/sodipodi-0.dtd"
   xmlns="http://www.w3.org/2000/svg"
   xmlns:svg="http://www.w3.org/2000/svg"><sodipodi:namedview
     id="namedview1"
     pagecolor="#ffffff"
     bordercolor="#000000"
     borderopacity="0.25"
     inkscape:showpageshadow="2"
     inkscape:pageopacity="0.0"
     inkscape:pagecheckerboard="0"
     inkscape:deskcolor="#d1d1d1"
     inkscape:document-units="mm"
     inkscape:zoom="3.37387"
     inkscape:cx="41.643573"
     inkscape:cy="69.060159"
     inkscape:window-width="1680"
     inkscape:window-height="997"
     inkscape:window-x="0"
     inkscape:window-y="25"
     inkscape:window-maximized="1"
     inkscape:current-layer="layer1" /><defs
     id="defs1" /><g
     inkscape:label="Camada 1"
     inkscape:groupmode="layer"
     id="layer1"><path
       style="display:inline;fill:#000000;stroke-width:0.251236"
       d="m 31.461584,19.42285 c -1.222968,-0.238354 -1.732321,-0.619346 -3.266574,-2.443377 -2.135907,-2.539317 -3.61907,-3.810318 -5.563341,-4.767515 -3.005755,-1.479784 -6.311461,-1.713609 -9.486512,-0.671014 -1.941508,0.637532 -3.6603823,1.750469 -6.0125072,3.892979 -1.7369326,1.58214 -2.3685274,2.06459 -3.3310735,2.544483 -0.5881339,0.293219 -1.0443717,0.45005 -1.4908489,0.512472 -0.5229366,0.07311 -1.59997957,-0.194398 -1.49121633,-0.370382 0.0216327,-0.035 0.26939033,-0.06428 0.55057163,-0.06505 0.8752538,-0.0025 1.7116772,-0.384804 2.5293586,-1.156396 0.34423,-0.324825 1.2505838,-1.385079 2.504922,-2.930263 2.2129355,-2.726046 4.4443907,-4.2353861 7.3704787,-4.9853314 2.045662,-0.5242973 3.990177,-0.5870455 5.987583,-0.193217 2.589891,0.5106464 4.775236,1.7070164 6.7831,3.7134144 0.844105,0.843487 1.255204,1.354703 2.354194,2.927531 1.085336,1.553289 1.231654,1.738333 1.854068,2.344862 0.634948,0.618738 1.171795,0.967439 1.823668,1.184531 0.562791,0.187426 0.613572,0.277923 0.228053,0.406422 -0.398588,0.132859 -0.852087,0.151703 -1.343924,0.05585 z"
       id="path2" /><path
       id="path24"
       style="display:inline;stroke-width:0.251236"
       d="m 18.054093,13.485685 a 4.6437016,4.7834792 0 0 0 -2.442228,0.714685 c -0.01309,0.03303 -0.0908,0.09578 -0.227893,0.188102 -0.342785,0.230847 -0.821357,0.720131 -1.147217,1.156518 a 4.6437016,4.7834792 0 0 0 -0.826823,2.723865 4.6437016,4.7834792 0 0 0 2.597258,4.282426 c 0.689427,0.33328 1.229362,0.451819 2.071191,0.453202 0.74988,0.001 1.462689,-0.16907 2.096513,-0.480074 a 4.6437016,4.7834792 0 0 0 2.522844,-4.255554 4.6437016,4.7834792 0 0 0 -4.643645,-4.78317 z m 0,1.207161 a 3.4365707,3.5701889 0 0 1 3.436483,3.570325 3.4365707,3.5701889 0 0 1 -1.867069,3.176033 c -0.469061,0.23212 -0.996378,0.358864 -1.551327,0.358118 -0.622995,-0.001 -1.022513,-0.08922 -1.532723,-0.337964 a 3.4365707,3.5701889 0 0 1 -1.922363,-3.196187 3.4365707,3.5701889 0 0 1 0.611849,-2.032951 c 0.241153,-0.325701 0.595366,-0.691219 0.849044,-0.863513 0.101452,-0.0689 0.159281,-0.115393 0.168981,-0.140043 a 3.4365707,3.5701889 0 0 1 1.807125,-0.533818 z" /><path
       id="path19"
       style="display:inline;stroke-width:0.251236"
       d="m 17.74517,12.498462 c -0.705871,0.007 -1.411874,0.06272 -1.871204,0.164331 -1.118962,0.247536 -2.031239,0.571339 -3.094901,1.099158 -1.477369,0.73311 -1.868334,1.010065 -4.8746379,3.450435 -1.7816571,1.446259 -2.8278578,1.954158 -4.2617554,2.069124 -0.942168,0.07554 -0.996899,0.130311 -0.3994588,0.398426 0.881359,0.395531 1.5675685,0.44059 3.0018839,0.19792 0.5752218,-0.09732 0.75084,-0.104537 0.9616984,-0.04031 0.2664612,0.08118 0.8933671,0.519798 0.9379273,0.656291 0.013874,0.04251 -0.1632951,0.176233 -0.3937744,0.297139 -0.6153955,0.322832 -1.653418,1.404274 -1.497583,1.560111 l 5.167e-4,5.17e-4 5.168e-4,5.17e-4 5.168e-4,5.17e-4 h 5.167e-4 c 0.03671,0.0109 0.3071279,-0.140039 0.613916,-0.344165 0.5402067,-0.35944 1.6632486,-0.887435 1.8975586,-0.891935 0.057897,-0.0011 0.2374792,0.120681 0.3989421,0.270784 l 0.2935221,0.272852 -0.1648478,0.109554 c -0.3985069,0.264774 -0.9413993,0.763584 -1.1306803,1.038696 -0.2240282,0.325611 -0.5385319,0.966374 -0.5007447,1.019059 l 5.168e-4,5.17e-4 5.168e-4,5.17e-4 5.167e-4,5.16e-4 h 5.168e-4 v 5.17e-4 h 5.168e-4 c 0.030625,5.82e-4 0.3057514,-0.215213 0.624768,-0.490926 0.7087055,-0.612504 1.4958621,-1.160653 1.666565,-1.160653 0.124804,0 0.798401,0.494471 0.798401,0.586011 0,0.02794 -0.151952,0.198911 -0.337964,0.380339 -0.5550169,0.541327 -0.8824624,1.09975 -1.0216431,1.742529 -0.070986,0.327835 0.049593,0.265114 0.3839559,-0.199471 0.3302332,-0.458843 0.7727622,-0.903827 1.2650392,-1.272791 l 0.322461,-0.241845 0.474906,0.271818 c 2.004328,1.146536 3.746068,1.730803 5.593974,1.876888 0.146242,0.0114 0.4452,0.01264 0.664559,0.0026 0.219359,-0.01016 0.742795,-0.03374 1.163236,-0.05219 1.871323,-0.08206 4.06142,-0.946018 5.90765,-2.33009 0.35177,-0.263714 1.043814,-0.846708 1.537374,-1.295528 1.077692,-0.980007 1.849163,-1.630747 2.276347,-1.91978 0.173663,-0.117497 0.315743,-0.237143 0.315743,-0.266133 v -5.17e-4 -5.17e-4 c -0.0071,-0.03432 -0.236302,-0.250872 -0.515214,-0.485758 -0.283341,-0.238617 -1.158811,-1.058118 -1.945618,-1.821594 -2.061194,-2.000067 -2.230246,-2.148796 -3.135209,-2.755388 -1.341437,-0.89916 -2.708554,-1.490816 -4.090706,-1.770434 -0.457584,-0.09258 -1.163265,-0.1346 -1.869137,-0.127641 z m 0.432015,1.090373 a 4.6437016,4.7834792 0 0 1 2.853573,1.009757 c 0.01891,0.0056 0.03786,0.01084 0.05684,0.01602 0.05419,0.01559 0.10851,0.03099 0.15968,0.05529 0.04869,0.02245 0.09565,0.04799 0.13901,0.07958 0.138037,0.04833 0.404589,0.173458 0.835607,0.378789 0.958123,0.456455 1.802123,1.020147 3.077332,2.055688 1.232751,1.001062 2.086262,1.622134 2.485636,1.809192 0.175828,0.08235 0.319877,0.172388 0.319877,0.199988 0,0.05918 -2.488697,1.858861 -3.367236,2.434993 -1.308938,0.858372 -2.813361,1.497474 -4.282943,1.819011 -0.56871,0.124429 -0.923126,0.153924 -1.988509,0.165364 -1.414399,0.0152 -1.436157,0.01371 -2.25981,-0.1757 -1.365065,-0.31391 -2.886049,-0.931238 -4.097424,-1.662947 -0.317227,-0.19161 -1.117791,-0.73714 -1.77922,-1.212329 C 9.6681442,20.086359 8.8651133,19.534678 8.5452148,19.335771 8.2328139,19.141528 7.9763172,18.963054 7.9648885,18.932694 l -5.168e-4,-5.16e-4 v -5.17e-4 -5.17e-4 c 4.515e-4,-0.02373 0.09764,-0.106688 0.2160075,-0.183968 0.1183674,-0.07728 0.753722,-0.580669 1.4118002,-1.118795 2.0657096,-1.689174 3.4306236,-2.503234 5.1846966,-3.091284 0.529958,-0.177667 0.828371,-0.263924 0.925008,-0.260966 0.02924,8.92e-4 0.0399,0.01015 0.03307,0.02739 a 4.6437016,4.7834792 0 0 1 2.442228,-0.714685 z" /><path
       d="m 17.904528,16.798462 c -0.220946,0.0019 -0.440984,0.05262 -0.64204,0.160227 -0.831192,0.444847 -0.772789,1.93654 0.09478,2.427114 0.985908,0.55749 2.314346,-0.421476 2.042342,-1.505238 -0.164114,-0.653918 -0.832252,-1.087612 -1.495085,-1.082103 z"
       style="display:inline;fill:#000000;stroke-width:0.548579"
       id="path9"
       inkscape:label="path9" /></g></svg>
