<?xml version="1.0" encoding="UTF-8"?>
<svg xmlns="http://www.w3.org/2000/svg" xmlns:xlink="http://www.w3.org/1999/xlink" width="215px" height="43px" viewBox="0 0 215 43" version="1.1">
<g id="surface1">
<path style=" stroke:none;fill-rule:nonzero;fill:rgb(94.509804%,52.941176%,49.411765%);fill-opacity:1;" d="M 7.480469 8.121094 L 13.933594 8.121094 L 13.933594 9.960938 L 7.480469 9.960938 L 7.480469 29.101562 L 3.242188 29.101562 L 3.242188 9.960938 L 0.164062 9.960938 L 0.164062 8.121094 L 3.242188 8.121094 L 3.242188 7.632812 C 3.242188 3.570312 5.90625 0 11.644531 0 C 14.53125 0 15.582031 0.75 16.746094 1.65625 L 16.746094 3.984375 L 16.070312 3.984375 C 15.546875 3.34375 14.421875 1.503906 12.28125 1.503906 C 8.90625 1.503906 7.480469 3.683594 7.480469 7.632812 Z M 7.480469 8.121094 "/>
<path style=" stroke:none;fill-rule:nonzero;fill:rgb(94.509804%,52.941176%,49.411765%);fill-opacity:1;" d="M 32.6875 8.121094 L 35.574219 8.121094 L 35.574219 29.101562 L 32.6875 29.101562 L 31.375 25.566406 C 30.023438 28.007812 27.773438 29.550781 24.546875 29.550781 C 18.84375 29.550781 14.867188 24.625 14.867188 18.609375 C 14.867188 12.554688 18.84375 7.671875 24.546875 7.671875 C 27.734375 7.671875 29.6875 8.269531 32.011719 9.8125 Z M 31.375 11.617188 C 29.648438 10.527344 27.507812 9.664062 25.21875 9.664062 C 21.84375 9.664062 19.070312 12.632812 19.070312 18.609375 C 19.070312 24.585938 21.84375 27.558594 25.21875 27.558594 C 28.597656 27.558594 31.335938 24.585938 31.375 18.648438 Z M 31.375 11.617188 "/>
<path style=" stroke:none;fill-rule:nonzero;fill:rgb(94.509804%,52.941176%,49.411765%);fill-opacity:1;" d="M 57.703125 24.4375 L 58.007812 24.625 L 58.007812 25.867188 C 56.765625 27.296875 55.003906 28.726562 52.867188 29.210938 C 45.964844 30.757812 38.953125 27.03125 38.953125 18.609375 C 38.953125 12.554688 43.527344 7.671875 49.828125 7.671875 C 54.21875 7.671875 56.019531 9.320312 57.480469 10.75 L 57.480469 12.746094 L 56.882812 12.746094 C 54.21875 9.925781 51.628906 9.023438 48.667969 9.699219 C 45.328125 10.414062 42.703125 13.121094 43.191406 19.0625 C 43.753906 26.46875 49.382812 27.710938 52.269531 27.296875 C 54.40625 26.992188 56.390625 25.75 57.703125 24.4375 Z M 57.703125 24.4375 "/>
<path style=" stroke:none;fill-rule:nonzero;fill:rgb(94.509804%,52.941176%,49.411765%);fill-opacity:1;" d="M 80.476562 18.421875 L 64.644531 18.421875 C 64.644531 18.648438 64.644531 18.875 64.679688 19.101562 C 65.242188 26.507812 70.871094 27.78125 73.757812 27.332031 C 75.898438 27.03125 77.882812 25.828125 79.199219 24.511719 L 79.5 24.699219 L 79.5 25.941406 C 78.148438 27.40625 76.496094 28.761719 74.359375 29.25 C 67.457031 30.792969 60.445312 27.070312 60.445312 18.648438 C 60.445312 12.597656 65.09375 7.710938 70.796875 7.710938 C 78.226562 7.707031 80.476562 14.101562 80.476562 18.421875 Z M 76.726562 16.578125 C 75.898438 11.765625 73.195312 9.511719 70.160156 9.734375 C 67.273438 9.960938 65.019531 12.257812 64.683594 16.578125 Z M 76.726562 16.578125 "/>
<path style=" stroke:none;fill-rule:nonzero;fill:rgb(34.509804%,34.901961%,35.294118%);fill-opacity:1;" d="M 104.367188 18.609375 C 104.367188 24.625 100.394531 29.550781 94.691406 29.550781 C 91.46875 29.550781 89.214844 28.007812 87.867188 25.566406 L 86.554688 29.101562 L 83.664062 29.101562 L 83.664062 0.375 L 87.867188 0.375 L 87.867188 9.585938 C 89.328125 8.609375 91.503906 7.671875 94.691406 7.671875 C 100.394531 7.671875 104.367188 12.554688 104.367188 18.609375 Z M 100.167969 18.609375 C 100.167969 12.632812 97.390625 9.664062 94.015625 9.664062 C 91.726562 9.664062 89.589844 10.527344 87.863281 11.617188 L 87.863281 18.648438 C 87.898438 24.585938 90.640625 27.558594 94.015625 27.558594 C 97.390625 27.558594 100.167969 24.585938 100.167969 18.609375 Z M 100.167969 18.609375 "/>
<path style=" stroke:none;fill-rule:nonzero;fill:rgb(34.509804%,34.901961%,35.294118%);fill-opacity:1;" d="M 127.023438 18.421875 L 111.195312 18.421875 C 111.195312 18.648438 111.195312 18.875 111.234375 19.101562 C 111.796875 26.507812 117.421875 27.78125 120.3125 27.332031 C 122.449219 27.03125 124.4375 25.828125 125.75 24.511719 L 126.050781 24.699219 L 126.050781 25.941406 C 124.699219 27.40625 123.050781 28.761719 120.910156 29.25 C 114.007812 30.792969 106.992188 27.070312 106.992188 18.648438 C 106.992188 12.597656 111.648438 7.710938 117.347656 7.710938 C 124.773438 7.707031 127.023438 14.101562 127.023438 18.421875 Z M 123.273438 16.578125 C 122.449219 11.765625 119.746094 9.511719 116.710938 9.734375 C 113.820312 9.960938 111.570312 12.257812 111.234375 16.578125 Z M 123.273438 16.578125 "/>
<path style=" stroke:none;fill-rule:nonzero;fill:rgb(34.509804%,34.901961%,35.294118%);fill-opacity:1;" d="M 147.28125 8.121094 L 150.167969 8.121094 L 150.167969 29.101562 L 147.28125 29.101562 L 145.96875 25.566406 C 144.617188 28.007812 142.367188 29.550781 139.140625 29.550781 C 133.4375 29.550781 129.460938 24.625 129.460938 18.609375 C 129.460938 12.554688 133.4375 7.671875 139.140625 7.671875 C 142.328125 7.671875 144.28125 8.269531 146.605469 9.8125 Z M 145.96875 11.617188 C 144.242188 10.527344 142.101562 9.664062 139.8125 9.664062 C 136.4375 9.664062 133.664062 12.632812 133.664062 18.609375 C 133.664062 24.585938 136.4375 27.558594 139.8125 27.558594 C 143.1875 27.558594 145.929688 24.585938 145.96875 18.648438 Z M 145.96875 11.617188 "/>
<path style=" stroke:none;fill-rule:nonzero;fill:rgb(34.509804%,34.901961%,35.294118%);fill-opacity:1;" d="M 154.105469 21.242188 L 154.105469 8.121094 L 158.304688 8.121094 L 158.304688 21.242188 C 158.304688 27.21875 161.757812 27.558594 164.460938 27.558594 C 166.75 27.558594 168.886719 26.695312 170.613281 25.601562 L 170.613281 8.121094 L 174.8125 8.121094 L 174.8125 29.101562 L 171.886719 29.101562 L 171.0625 27.296875 C 169.597656 28.382812 167.3125 29.550781 163.78125 29.550781 C 158.269531 29.550781 154.105469 27.296875 154.105469 21.242188 Z M 154.105469 21.242188 "/>
<path style=" stroke:none;fill-rule:nonzero;fill:rgb(34.509804%,34.901961%,35.294118%);fill-opacity:1;" d="M 192.40625 25.527344 L 193.082031 25.527344 L 193.082031 27.859375 C 191.921875 28.796875 190.867188 29.546875 187.941406 29.546875 C 183.179688 29.546875 180.890625 25.9375 180.890625 21.917969 L 180.890625 9.960938 L 177.8125 9.960938 L 177.8125 8.121094 L 180.890625 8.121094 L 182.203125 3.34375 L 185.125 3.34375 L 185.125 8.121094 L 191.84375 8.121094 L 191.84375 9.960938 L 185.125 9.960938 L 185.125 21.921875 C 185.125 25.867188 186.066406 28.007812 188.617188 28.007812 C 190.757812 28.007812 191.878906 26.203125 192.40625 25.527344 Z M 192.40625 25.527344 "/>
<path style=" stroke:none;fill-rule:nonzero;fill:rgb(34.509804%,34.901961%,35.294118%);fill-opacity:1;" d="M 212.359375 8.121094 L 214.835938 8.121094 L 203.203125 36.507812 L 200.730469 36.507812 L 203.769531 29.101562 L 202.570312 29.101562 L 194.390625 8.125 L 198.890625 8.125 L 205.15625 25.796875 Z M 212.359375 8.121094 "/>
<path style=" stroke:none;fill-rule:nonzero;fill:rgb(34.509804%,34.901961%,35.294118%);fill-opacity:1;" d="M 84.335938 42.777344 L 84.335938 37.429688 L 87.679688 37.429688 L 87.679688 38.363281 L 85.265625 38.363281 L 85.265625 39.445312 L 87.183594 39.445312 L 87.183594 40.378906 L 85.265625 40.378906 L 85.265625 41.84375 L 87.679688 41.84375 L 87.679688 42.777344 Z M 84.335938 42.777344 "/>
<path style=" stroke:none;fill-rule:nonzero;fill:rgb(34.509804%,34.901961%,35.294118%);fill-opacity:1;" d="M 90.441406 42.875 C 90.148438 42.875 89.863281 42.828125 89.59375 42.734375 C 89.324219 42.644531 89.085938 42.511719 88.882812 42.335938 C 88.679688 42.164062 88.53125 41.953125 88.445312 41.710938 L 89.316406 41.390625 C 89.351562 41.492188 89.425781 41.582031 89.535156 41.664062 C 89.644531 41.75 89.777344 41.820312 89.933594 41.871094 C 90.089844 41.921875 90.257812 41.945312 90.441406 41.945312 C 90.625 41.945312 90.800781 41.917969 90.960938 41.859375 C 91.125 41.804688 91.253906 41.726562 91.351562 41.617188 C 91.453125 41.515625 91.5 41.398438 91.5 41.257812 C 91.5 41.121094 91.449219 41.003906 91.34375 40.914062 C 91.242188 40.824219 91.109375 40.753906 90.945312 40.699219 C 90.78125 40.644531 90.617188 40.601562 90.445312 40.578125 C 90.0625 40.515625 89.726562 40.429688 89.425781 40.304688 C 89.125 40.1875 88.890625 40.015625 88.714844 39.796875 C 88.539062 39.582031 88.453125 39.300781 88.453125 38.960938 C 88.453125 38.632812 88.546875 38.351562 88.734375 38.109375 C 88.917969 37.871094 89.160156 37.679688 89.460938 37.546875 C 89.765625 37.40625 90.09375 37.34375 90.441406 37.34375 C 90.734375 37.34375 91.015625 37.390625 91.285156 37.480469 C 91.558594 37.570312 91.796875 37.707031 92 37.882812 C 92.203125 38.054688 92.351562 38.265625 92.4375 38.515625 L 91.5625 38.832031 C 91.53125 38.730469 91.453125 38.640625 91.34375 38.554688 C 91.234375 38.46875 91.101562 38.402344 90.945312 38.351562 C 90.789062 38.304688 90.617188 38.277344 90.4375 38.277344 C 90.257812 38.273438 90.085938 38.304688 89.925781 38.367188 C 89.765625 38.421875 89.632812 38.507812 89.53125 38.609375 C 89.429688 38.710938 89.378906 38.828125 89.378906 38.960938 C 89.378906 39.132812 89.425781 39.257812 89.523438 39.34375 C 89.617188 39.429688 89.746094 39.492188 89.90625 39.535156 C 90.066406 39.574219 90.242188 39.609375 90.4375 39.640625 C 90.796875 39.703125 91.125 39.792969 91.421875 39.925781 C 91.726562 40.058594 91.96875 40.234375 92.152344 40.453125 C 92.335938 40.675781 92.429688 40.945312 92.429688 41.261719 C 92.429688 41.585938 92.335938 41.867188 92.152344 42.109375 C 91.96875 42.355469 91.726562 42.542969 91.421875 42.679688 C 91.125 42.808594 90.796875 42.875 90.441406 42.875 Z M 90.441406 42.875 "/>
<path style=" stroke:none;fill-rule:nonzero;fill:rgb(34.509804%,34.901961%,35.294118%);fill-opacity:1;" d="M 97.148438 37.429688 L 97.148438 38.363281 L 95.515625 38.363281 L 95.515625 42.777344 L 94.585938 42.777344 L 94.585938 38.363281 L 92.957031 38.363281 L 92.957031 37.429688 Z M 97.148438 37.429688 "/>
<path style=" stroke:none;fill-rule:nonzero;fill:rgb(34.509804%,34.901961%,35.294118%);fill-opacity:1;" d="M 97.90625 42.777344 L 97.90625 37.429688 L 101.25 37.429688 L 101.25 38.363281 L 98.835938 38.363281 L 98.835938 39.445312 L 100.75 39.445312 L 100.75 40.378906 L 98.835938 40.378906 L 98.835938 41.84375 L 101.25 41.84375 L 101.25 42.777344 Z M 99.300781 37.011719 L 99.605469 35.914062 L 100.535156 35.914062 L 99.917969 37.011719 Z M 99.300781 37.011719 "/>
<path style=" stroke:none;fill-rule:nonzero;fill:rgb(34.509804%,34.901961%,35.294118%);fill-opacity:1;" d="M 106.125 37.429688 L 106.125 38.363281 L 104.5 38.363281 L 104.5 42.777344 L 103.570312 42.777344 L 103.570312 38.363281 L 101.9375 38.363281 L 101.9375 37.429688 Z M 106.125 37.429688 "/>
<path style=" stroke:none;fill-rule:nonzero;fill:rgb(34.509804%,34.901961%,35.294118%);fill-opacity:1;" d="M 107.003906 42.777344 L 107.003906 37.429688 L 107.933594 37.429688 L 107.933594 42.777344 Z M 107.003906 42.777344 "/>
<path style=" stroke:none;fill-rule:nonzero;fill:rgb(34.509804%,34.901961%,35.294118%);fill-opacity:1;" d="M 111.429688 42.875 C 111.070312 42.875 110.730469 42.804688 110.414062 42.660156 C 110.09375 42.515625 109.816406 42.316406 109.578125 42.0625 C 109.335938 41.808594 109.148438 41.515625 109.011719 41.179688 C 108.875 40.84375 108.808594 40.484375 108.808594 40.101562 C 108.808594 39.71875 108.875 39.359375 109.011719 39.023438 C 109.148438 38.6875 109.335938 38.398438 109.578125 38.144531 C 109.816406 37.890625 110.09375 37.691406 110.414062 37.546875 C 110.730469 37.40625 111.070312 37.332031 111.429688 37.332031 C 111.859375 37.332031 112.257812 37.429688 112.625 37.632812 C 112.984375 37.835938 113.289062 38.101562 113.523438 38.429688 L 112.695312 38.878906 C 112.546875 38.695312 112.359375 38.542969 112.136719 38.429688 C 111.914062 38.320312 111.679688 38.265625 111.429688 38.265625 C 111.195312 38.265625 110.976562 38.3125 110.773438 38.40625 C 110.566406 38.5 110.382812 38.632812 110.234375 38.804688 C 110.078125 38.972656 109.957031 39.171875 109.871094 39.390625 C 109.78125 39.617188 109.742188 39.851562 109.742188 40.105469 C 109.742188 40.359375 109.789062 40.597656 109.875 40.820312 C 109.960938 41.042969 110.078125 41.234375 110.234375 41.40625 C 110.390625 41.574219 110.570312 41.707031 110.777344 41.804688 C 110.984375 41.898438 111.203125 41.945312 111.433594 41.945312 C 111.6875 41.945312 111.921875 41.890625 112.144531 41.78125 C 112.367188 41.664062 112.546875 41.515625 112.699219 41.328125 L 113.53125 41.78125 C 113.289062 42.109375 112.988281 42.375 112.625 42.578125 C 112.257812 42.777344 111.859375 42.875 111.429688 42.875 Z M 111.429688 42.875 "/>
<path style=" stroke:none;fill-rule:nonzero;fill:rgb(34.509804%,34.901961%,35.294118%);fill-opacity:1;" d="M 115.914062 37.429688 L 116.984375 37.429688 L 118.921875 42.777344 L 117.9375 42.777344 L 117.59375 41.828125 L 115.3125 41.828125 L 114.96875 42.777344 L 113.984375 42.777344 Z M 115.648438 40.898438 L 117.25 40.898438 L 116.445312 38.695312 Z M 115.648438 40.898438 "/>
<path style=" stroke:none;fill-rule:nonzero;fill:rgb(34.509804%,34.901961%,35.294118%);fill-opacity:1;" d="M 123.984375 42.875 C 123.617188 42.875 123.28125 42.804688 122.960938 42.660156 C 122.648438 42.515625 122.367188 42.316406 122.125 42.0625 C 121.886719 41.808594 121.695312 41.515625 121.5625 41.179688 C 121.425781 40.84375 121.359375 40.484375 121.359375 40.101562 C 121.359375 39.71875 121.425781 39.359375 121.5625 39.023438 C 121.695312 38.6875 121.886719 38.398438 122.125 38.144531 C 122.367188 37.890625 122.644531 37.691406 122.960938 37.546875 C 123.28125 37.40625 123.617188 37.332031 123.984375 37.332031 C 124.414062 37.332031 124.8125 37.429688 125.171875 37.632812 C 125.539062 37.835938 125.835938 38.101562 126.074219 38.429688 L 125.242188 38.878906 C 125.09375 38.695312 124.90625 38.542969 124.6875 38.429688 C 124.46875 38.320312 124.226562 38.265625 123.984375 38.265625 C 123.75 38.265625 123.53125 38.3125 123.320312 38.40625 C 123.117188 38.5 122.9375 38.632812 122.78125 38.804688 C 122.625 38.972656 122.507812 39.171875 122.421875 39.390625 C 122.335938 39.617188 122.292969 39.851562 122.292969 40.105469 C 122.292969 40.359375 122.335938 40.597656 122.421875 40.820312 C 122.507812 41.042969 122.632812 41.234375 122.789062 41.40625 C 122.941406 41.574219 123.125 41.707031 123.328125 41.804688 C 123.53125 41.898438 123.75 41.945312 123.984375 41.945312 C 124.234375 41.945312 124.476562 41.890625 124.695312 41.78125 C 124.914062 41.664062 125.101562 41.515625 125.25 41.328125 L 126.078125 41.78125 C 125.84375 42.109375 125.539062 42.375 125.179688 42.578125 C 124.8125 42.777344 124.414062 42.875 123.984375 42.875 Z M 123.984375 42.875 "/>
<path style=" stroke:none;fill-rule:nonzero;fill:rgb(34.509804%,34.901961%,35.294118%);fill-opacity:1;" d="M 129.246094 42.875 C 128.882812 42.875 128.546875 42.804688 128.226562 42.660156 C 127.910156 42.515625 127.632812 42.316406 127.390625 42.0625 C 127.148438 41.808594 126.960938 41.515625 126.820312 41.179688 C 126.6875 40.84375 126.617188 40.484375 126.617188 40.101562 C 126.617188 39.71875 126.6875 39.363281 126.820312 39.027344 C 126.960938 38.695312 127.148438 38.398438 127.390625 38.144531 C 127.632812 37.890625 127.910156 37.6875 128.226562 37.546875 C 128.546875 37.402344 128.882812 37.328125 129.246094 37.328125 C 129.609375 37.328125 129.949219 37.402344 130.265625 37.546875 C 130.582031 37.6875 130.863281 37.890625 131.101562 38.144531 C 131.34375 38.398438 131.53125 38.695312 131.667969 39.027344 C 131.800781 39.363281 131.871094 39.71875 131.871094 40.101562 C 131.871094 40.484375 131.804688 40.84375 131.667969 41.179688 C 131.53125 41.515625 131.34375 41.808594 131.101562 42.0625 C 130.863281 42.316406 130.582031 42.515625 130.265625 42.660156 C 129.949219 42.804688 129.609375 42.875 129.246094 42.875 Z M 129.246094 41.945312 C 129.476562 41.945312 129.699219 41.898438 129.90625 41.800781 C 130.109375 41.703125 130.289062 41.570312 130.445312 41.398438 C 130.601562 41.234375 130.726562 41.039062 130.8125 40.8125 C 130.898438 40.59375 130.945312 40.355469 130.945312 40.105469 C 130.945312 39.851562 130.898438 39.617188 130.8125 39.390625 C 130.71875 39.171875 130.601562 38.976562 130.445312 38.804688 C 130.289062 38.640625 130.109375 38.507812 129.90625 38.410156 C 129.703125 38.3125 129.480469 38.265625 129.25 38.265625 C 129.015625 38.265625 128.796875 38.3125 128.585938 38.410156 C 128.382812 38.507812 128.203125 38.640625 128.046875 38.808594 C 127.890625 38.976562 127.769531 39.171875 127.679688 39.394531 C 127.589844 39.617188 127.546875 39.851562 127.546875 40.105469 C 127.546875 40.359375 127.59375 40.597656 127.679688 40.820312 C 127.773438 41.039062 127.890625 41.234375 128.046875 41.40625 C 128.203125 41.574219 128.382812 41.707031 128.585938 41.804688 C 128.796875 41.898438 129.011719 41.945312 129.246094 41.945312 Z M 129.246094 41.945312 "/>
<path style=" stroke:none;fill-rule:nonzero;fill:rgb(34.509804%,34.901961%,35.294118%);fill-opacity:1;" d="M 132.566406 42.777344 L 132.566406 37.429688 L 134.613281 37.429688 C 134.902344 37.429688 135.164062 37.503906 135.398438 37.648438 C 135.632812 37.796875 135.816406 37.992188 135.953125 38.234375 C 136.09375 38.476562 136.160156 38.742188 136.160156 39.039062 C 136.160156 39.28125 136.117188 39.503906 136.03125 39.703125 C 135.945312 39.90625 135.820312 40.082031 135.664062 40.226562 C 135.507812 40.375 135.328125 40.492188 135.125 40.5625 L 136.398438 42.773438 L 135.328125 42.773438 L 134.09375 40.648438 L 133.496094 40.648438 L 133.496094 42.773438 L 132.566406 42.773438 Z M 133.5 39.71875 L 134.507812 39.71875 C 134.640625 39.71875 134.761719 39.6875 134.871094 39.617188 C 134.976562 39.550781 135.066406 39.464844 135.132812 39.351562 C 135.199219 39.238281 135.234375 39.117188 135.234375 38.976562 C 135.234375 38.835938 135.199219 38.710938 135.132812 38.597656 C 135.066406 38.484375 134.976562 38.398438 134.871094 38.328125 C 134.761719 38.265625 134.640625 38.230469 134.507812 38.230469 L 133.5 38.230469 Z M 133.5 39.71875 "/>
<path style=" stroke:none;fill-rule:nonzero;fill:rgb(34.509804%,34.901961%,35.294118%);fill-opacity:1;" d="M 137.125 42.777344 L 137.125 37.429688 L 139.03125 37.429688 C 139.320312 37.429688 139.582031 37.503906 139.816406 37.648438 C 140.054688 37.796875 140.238281 37.992188 140.375 38.234375 C 140.507812 38.476562 140.578125 38.75 140.578125 39.039062 C 140.578125 39.339844 140.507812 39.609375 140.367188 39.851562 C 140.226562 40.097656 140.039062 40.289062 139.804688 40.4375 C 139.570312 40.578125 139.3125 40.652344 139.03125 40.652344 L 138.054688 40.652344 L 138.054688 42.78125 L 137.125 42.78125 Z M 138.054688 39.71875 L 138.929688 39.71875 C 139.0625 39.71875 139.183594 39.6875 139.289062 39.617188 C 139.398438 39.550781 139.488281 39.464844 139.554688 39.351562 C 139.617188 39.238281 139.648438 39.117188 139.648438 38.976562 C 139.648438 38.835938 139.617188 38.710938 139.554688 38.597656 C 139.488281 38.484375 139.398438 38.398438 139.289062 38.328125 C 139.183594 38.265625 139.0625 38.230469 138.929688 38.230469 L 138.054688 38.230469 Z M 138.054688 39.71875 "/>
<path style=" stroke:none;fill-rule:nonzero;fill:rgb(34.509804%,34.901961%,35.294118%);fill-opacity:1;" d="M 143.816406 42.875 C 143.453125 42.875 143.117188 42.804688 142.796875 42.660156 C 142.484375 42.515625 142.203125 42.316406 141.960938 42.0625 C 141.71875 41.808594 141.53125 41.515625 141.394531 41.179688 C 141.257812 40.84375 141.1875 40.484375 141.1875 40.101562 C 141.1875 39.71875 141.257812 39.363281 141.394531 39.027344 C 141.53125 38.695312 141.71875 38.398438 141.960938 38.144531 C 142.203125 37.890625 142.484375 37.6875 142.796875 37.546875 C 143.117188 37.402344 143.453125 37.328125 143.816406 37.328125 C 144.179688 37.328125 144.523438 37.402344 144.835938 37.546875 C 145.15625 37.6875 145.433594 37.890625 145.671875 38.144531 C 145.914062 38.398438 146.105469 38.695312 146.242188 39.027344 C 146.375 39.363281 146.445312 39.71875 146.445312 40.101562 C 146.445312 40.484375 146.375 40.84375 146.242188 41.179688 C 146.101562 41.515625 145.914062 41.808594 145.671875 42.0625 C 145.433594 42.316406 145.15625 42.515625 144.835938 42.660156 C 144.523438 42.804688 144.179688 42.875 143.816406 42.875 Z M 143.816406 41.945312 C 144.050781 41.945312 144.269531 41.898438 144.476562 41.800781 C 144.679688 41.703125 144.863281 41.570312 145.015625 41.398438 C 145.171875 41.234375 145.296875 41.039062 145.382812 40.8125 C 145.46875 40.59375 145.515625 40.355469 145.515625 40.105469 C 145.515625 39.851562 145.46875 39.617188 145.382812 39.390625 C 145.292969 39.171875 145.171875 38.976562 145.015625 38.804688 C 144.859375 38.640625 144.679688 38.507812 144.476562 38.410156 C 144.273438 38.3125 144.054688 38.265625 143.820312 38.265625 C 143.585938 38.265625 143.367188 38.3125 143.160156 38.410156 C 142.953125 38.507812 142.773438 38.640625 142.617188 38.808594 C 142.460938 38.976562 142.339844 39.171875 142.25 39.394531 C 142.164062 39.617188 142.121094 39.851562 142.121094 40.105469 C 142.121094 40.359375 142.164062 40.597656 142.253906 40.820312 C 142.34375 41.039062 142.464844 41.234375 142.621094 41.40625 C 142.777344 41.574219 142.957031 41.707031 143.160156 41.804688 C 143.363281 41.898438 143.585938 41.945312 143.816406 41.945312 Z M 143.816406 41.945312 "/>
<path style=" stroke:none;fill-rule:nonzero;fill:rgb(34.509804%,34.901961%,35.294118%);fill-opacity:1;" d="M 147.140625 42.777344 L 147.140625 37.429688 L 149.1875 37.429688 C 149.476562 37.429688 149.734375 37.503906 149.96875 37.648438 C 150.203125 37.796875 150.390625 37.992188 150.527344 38.234375 C 150.664062 38.476562 150.734375 38.742188 150.734375 39.039062 C 150.734375 39.28125 150.6875 39.503906 150.601562 39.703125 C 150.515625 39.90625 150.390625 40.082031 150.234375 40.226562 C 150.078125 40.375 149.898438 40.492188 149.695312 40.5625 L 150.96875 42.773438 L 149.898438 42.773438 L 148.664062 40.648438 L 148.070312 40.648438 L 148.070312 42.773438 L 147.140625 42.773438 Z M 148.070312 39.71875 L 149.078125 39.71875 C 149.210938 39.71875 149.328125 39.6875 149.4375 39.617188 C 149.546875 39.550781 149.632812 39.464844 149.703125 39.351562 C 149.769531 39.238281 149.800781 39.117188 149.800781 38.976562 C 149.800781 38.835938 149.769531 38.710938 149.703125 38.597656 C 149.632812 38.484375 149.546875 38.398438 149.4375 38.328125 C 149.328125 38.265625 149.210938 38.230469 149.078125 38.230469 L 148.070312 38.230469 Z M 148.070312 39.71875 "/>
<path style=" stroke:none;fill-rule:nonzero;fill:rgb(34.509804%,34.901961%,35.294118%);fill-opacity:1;" d="M 153.335938 37.429688 L 154.40625 37.429688 L 156.34375 42.777344 L 155.359375 42.777344 L 155.015625 41.828125 L 152.734375 41.828125 L 152.390625 42.777344 L 151.402344 42.777344 Z M 153.070312 40.898438 L 154.671875 40.898438 L 153.867188 38.695312 Z M 153.070312 40.898438 "/>
<path style=" stroke:none;fill-rule:nonzero;fill:rgb(34.509804%,34.901961%,35.294118%);fill-opacity:1;" d="M 156.992188 42.777344 L 156.992188 37.429688 L 157.917969 37.429688 L 157.917969 41.84375 L 160.140625 41.84375 L 160.140625 42.777344 Z M 156.992188 42.777344 "/>
<path style=" stroke:none;fill-rule:nonzero;fill:rgb(34.509804%,34.901961%,35.294118%);fill-opacity:1;" d="M 162.804688 42.777344 L 162.804688 37.429688 L 166.148438 37.429688 L 166.148438 38.363281 L 163.734375 38.363281 L 163.734375 39.445312 L 165.652344 39.445312 L 165.652344 40.378906 L 163.734375 40.378906 L 163.734375 41.84375 L 166.148438 41.84375 L 166.148438 42.777344 Z M 162.804688 42.777344 "/>
<path style=" stroke:none;fill-rule:nonzero;fill:rgb(34.509804%,34.901961%,35.294118%);fill-opacity:1;" d="M 168.816406 42.777344 L 168.816406 37.429688 L 171.96875 37.429688 L 171.96875 38.363281 L 169.746094 38.363281 L 169.746094 39.445312 L 171.601562 39.445312 L 171.601562 40.378906 L 169.746094 40.378906 L 169.746094 42.777344 Z M 168.816406 42.777344 "/>
<path style=" stroke:none;fill-rule:nonzero;fill:rgb(34.509804%,34.901961%,35.294118%);fill-opacity:1;" d="M 173.726562 37.429688 L 174.792969 37.429688 L 176.734375 42.777344 L 175.75 42.777344 L 175.40625 41.828125 L 173.117188 41.828125 L 172.777344 42.777344 L 171.789062 42.777344 Z M 173.460938 40.898438 L 175.0625 40.898438 L 174.257812 38.695312 Z M 173.460938 40.898438 "/>
<path style=" stroke:none;fill-rule:nonzero;fill:rgb(34.509804%,34.901961%,35.294118%);fill-opacity:1;" d="M 179.558594 42.875 C 179.195312 42.875 178.859375 42.804688 178.539062 42.660156 C 178.226562 42.515625 177.945312 42.316406 177.703125 42.0625 C 177.464844 41.808594 177.273438 41.515625 177.140625 41.179688 C 177.003906 40.84375 176.9375 40.484375 176.9375 40.101562 C 176.9375 39.71875 177.003906 39.359375 177.140625 39.023438 C 177.273438 38.6875 177.464844 38.398438 177.703125 38.144531 C 177.945312 37.890625 178.222656 37.691406 178.539062 37.546875 C 178.859375 37.40625 179.195312 37.332031 179.558594 37.332031 C 179.992188 37.332031 180.390625 37.429688 180.75 37.632812 C 181.117188 37.835938 181.414062 38.101562 181.652344 38.429688 L 180.820312 38.878906 C 180.671875 38.695312 180.484375 38.542969 180.265625 38.429688 C 180.046875 38.320312 179.804688 38.265625 179.558594 38.265625 C 179.328125 38.265625 179.105469 38.3125 178.898438 38.40625 C 178.695312 38.5 178.515625 38.632812 178.359375 38.804688 C 178.203125 38.972656 178.085938 39.171875 178 39.390625 C 177.914062 39.617188 177.871094 39.851562 177.871094 40.105469 C 177.871094 40.359375 177.914062 40.597656 178 40.820312 C 178.085938 41.042969 178.210938 41.234375 178.367188 41.40625 C 178.519531 41.574219 178.699219 41.707031 178.90625 41.804688 C 179.109375 41.898438 179.328125 41.945312 179.5625 41.945312 C 179.8125 41.945312 180.054688 41.890625 180.273438 41.78125 C 180.492188 41.664062 180.675781 41.515625 180.828125 41.328125 L 181.65625 41.78125 C 181.421875 42.109375 181.117188 42.375 180.757812 42.578125 C 180.390625 42.777344 179.992188 42.875 179.558594 42.875 Z M 179.558594 42.875 "/>
<path style=" stroke:none;fill-rule:nonzero;fill:rgb(34.509804%,34.901961%,35.294118%);fill-opacity:1;" d="M 182.492188 42.777344 L 182.492188 37.429688 L 183.417969 37.429688 L 183.417969 42.777344 Z M 182.492188 42.777344 "/>
<path style=" stroke:none;fill-rule:nonzero;fill:rgb(34.509804%,34.901961%,35.294118%);fill-opacity:1;" d="M 186.230469 37.429688 L 187.300781 37.429688 L 189.242188 42.777344 L 188.253906 42.777344 L 187.914062 41.828125 L 185.625 41.828125 L 185.28125 42.777344 L 184.296875 42.777344 Z M 185.964844 40.898438 L 187.570312 40.898438 L 186.761719 38.695312 Z M 185.964844 40.898438 "/>
<path style=" stroke:none;fill-rule:nonzero;fill:rgb(34.509804%,34.901961%,35.294118%);fill-opacity:1;" d="M 189.882812 42.777344 L 189.882812 37.429688 L 190.8125 37.429688 L 190.8125 41.84375 L 193.03125 41.84375 L 193.03125 42.777344 Z M 189.882812 42.777344 "/>
</g>
</svg>
